<mxfile host="app.diagrams.net" modified="2023-09-16T17:38:26.072Z" agent="Mozilla/5.0 (Windows NT 10.0; Win64; x64) AppleWebKit/537.36 (KHTML, like Gecko) Chrome/116.0.0.0 Safari/537.36" etag="1tHHgqUSlaItnHhAPicZ" version="21.7.5" type="device">
  <diagram name="Page-1" id="CY_EAT2HBuPFVBq4eShE">
    <mxGraphModel dx="1000" dy="509" grid="1" gridSize="10" guides="1" tooltips="1" connect="1" arrows="1" fold="1" page="1" pageScale="1" pageWidth="850" pageHeight="1100" math="0" shadow="0">
      <root>
        <mxCell id="0" />
        <mxCell id="1" parent="0" />
        <mxCell id="FvrqTq16s8rVqCLobcpf-4" value="" style="edgeStyle=orthogonalEdgeStyle;rounded=0;orthogonalLoop=1;jettySize=auto;html=1;exitX=0;exitY=0.5;exitDx=0;exitDy=0;entryX=1;entryY=0.75;entryDx=0;entryDy=0;" parent="1" source="VgNWcCYagj2g2IF3U50I-1" target="w8QxKclsJvKgP-PQZt70-2" edge="1">
          <mxGeometry relative="1" as="geometry" />
        </mxCell>
        <mxCell id="VgNWcCYagj2g2IF3U50I-6" value="Displays selected&lt;br&gt;user information&lt;br&gt;to user" style="edgeLabel;html=1;align=center;verticalAlign=middle;resizable=0;points=[];" vertex="1" connectable="0" parent="FvrqTq16s8rVqCLobcpf-4">
          <mxGeometry x="0.1983" y="1" relative="1" as="geometry">
            <mxPoint x="2" y="14" as="offset" />
          </mxGeometry>
        </mxCell>
        <mxCell id="CrHNpw65vWsv0qFxheBZ-1" value="Seek and Hide Mobile Application 1" style="swimlane;whiteSpace=wrap;html=1;startSize=40;fillColor=#FFFFFF;" parent="1" vertex="1">
          <mxGeometry x="260" y="200" width="120" height="180" as="geometry" />
        </mxCell>
        <mxCell id="FvrqTq16s8rVqCLobcpf-5" value="Packages data together and tracks location" style="rounded=0;whiteSpace=wrap;html=1;" parent="CrHNpw65vWsv0qFxheBZ-1" vertex="1">
          <mxGeometry x="10" y="50" width="100" height="50" as="geometry" />
        </mxCell>
        <mxCell id="VgNWcCYagj2g2IF3U50I-1" value="&lt;font style=&quot;font-size: 11px;&quot;&gt;Selects a user from the list to display to the user&lt;/font&gt;" style="rounded=0;whiteSpace=wrap;html=1;" vertex="1" parent="CrHNpw65vWsv0qFxheBZ-1">
          <mxGeometry x="10" y="120" width="100" height="50" as="geometry" />
        </mxCell>
        <mxCell id="w8QxKclsJvKgP-PQZt70-1" value="&lt;p style=&quot;line-height:1.38;margin-top:0pt;margin-bottom:0pt;&quot; dir=&quot;ltr&quot;&gt;&lt;/p&gt;&lt;p style=&quot;line-height:1.38;margin-top:0pt;margin-bottom:0pt;&quot; dir=&quot;ltr&quot;&gt;&lt;/p&gt;&lt;div&gt;&lt;/div&gt;&lt;span style=&quot;font-size: 12pt; font-family: Arial, sans-serif; background-color: transparent; font-variant-numeric: normal; font-variant-east-asian: normal; font-variant-alternates: normal; vertical-align: baseline;&quot;&gt;&lt;div style=&quot;text-align: left;&quot;&gt;&lt;span style=&quot;background-color: transparent; font-size: 12pt;&quot;&gt;Project Title: Seek and Hide&lt;/span&gt;&lt;/div&gt;&lt;div style=&quot;text-align: left;&quot;&gt;&lt;span style=&quot;background-color: transparent; font-size: 12pt;&quot;&gt;Goal Statement: Social app where you get notified if a user is nearby and you try to identify who it is. The user uploads either a picture of themselves or a description of what they are wearing and other users will be notified if they are in close enough proximity. The primary purpose is to connect people virtually and physically.&lt;/span&gt;&lt;/div&gt;&lt;/span&gt;&lt;span id=&quot;docs-internal-guid-9b8488f0-7fff-7d0e-f9cc-1bc883892b03&quot;&gt;&lt;div style=&quot;text-align: left;&quot;&gt;&lt;/div&gt;&lt;/span&gt;" style="rounded=0;whiteSpace=wrap;html=1;" parent="1" vertex="1">
          <mxGeometry width="850" height="120" as="geometry" />
        </mxCell>
        <mxCell id="FvrqTq16s8rVqCLobcpf-3" value="Inputs their&lt;br&gt;identification data" style="edgeStyle=orthogonalEdgeStyle;rounded=0;orthogonalLoop=1;jettySize=auto;html=1;exitX=1;exitY=0.25;exitDx=0;exitDy=0;entryX=0;entryY=0.5;entryDx=0;entryDy=0;" parent="1" source="w8QxKclsJvKgP-PQZt70-2" target="FvrqTq16s8rVqCLobcpf-5" edge="1">
          <mxGeometry x="-0.0588" relative="1" as="geometry">
            <mxPoint x="240" y="245" as="targetPoint" />
            <mxPoint as="offset" />
          </mxGeometry>
        </mxCell>
        <mxCell id="w8QxKclsJvKgP-PQZt70-2" value="&lt;b&gt;User 1&lt;/b&gt;" style="rounded=0;whiteSpace=wrap;html=1;" parent="1" vertex="1">
          <mxGeometry x="40" y="280" width="80" height="60" as="geometry" />
        </mxCell>
        <mxCell id="VgNWcCYagj2g2IF3U50I-4" style="edgeStyle=orthogonalEdgeStyle;rounded=0;orthogonalLoop=1;jettySize=auto;html=1;exitX=0.145;exitY=0;exitDx=0;exitDy=4.35;exitPerimeter=0;entryX=1;entryY=0.5;entryDx=0;entryDy=0;" edge="1" parent="1" source="w8QxKclsJvKgP-PQZt70-4" target="VgNWcCYagj2g2IF3U50I-1">
          <mxGeometry relative="1" as="geometry">
            <Array as="points">
              <mxPoint x="470" y="404" />
              <mxPoint x="470" y="345" />
            </Array>
          </mxGeometry>
        </mxCell>
        <mxCell id="VgNWcCYagj2g2IF3U50I-5" value="Returns list of&lt;br&gt;nearby users" style="edgeLabel;html=1;align=center;verticalAlign=middle;resizable=0;points=[];" vertex="1" connectable="0" parent="VgNWcCYagj2g2IF3U50I-4">
          <mxGeometry x="0.2314" y="-1" relative="1" as="geometry">
            <mxPoint as="offset" />
          </mxGeometry>
        </mxCell>
        <mxCell id="VgNWcCYagj2g2IF3U50I-18" style="edgeStyle=orthogonalEdgeStyle;rounded=0;orthogonalLoop=1;jettySize=auto;html=1;entryX=1;entryY=0.5;entryDx=0;entryDy=0;" edge="1" parent="1" target="VgNWcCYagj2g2IF3U50I-11">
          <mxGeometry relative="1" as="geometry">
            <mxPoint x="470" y="600" as="sourcePoint" />
            <Array as="points">
              <mxPoint x="470" y="665" />
            </Array>
          </mxGeometry>
        </mxCell>
        <mxCell id="VgNWcCYagj2g2IF3U50I-19" value="Returns list of&lt;br style=&quot;border-color: var(--border-color);&quot;&gt;nearby users" style="edgeLabel;html=1;align=center;verticalAlign=middle;resizable=0;points=[];" vertex="1" connectable="0" parent="VgNWcCYagj2g2IF3U50I-18">
          <mxGeometry x="0.5687" relative="1" as="geometry">
            <mxPoint x="19" as="offset" />
          </mxGeometry>
        </mxCell>
        <mxCell id="VgNWcCYagj2g2IF3U50I-23" style="edgeStyle=orthogonalEdgeStyle;rounded=0;orthogonalLoop=1;jettySize=auto;html=1;exitX=0.145;exitY=1;exitDx=0;exitDy=-4.35;exitPerimeter=0;endArrow=none;endFill=0;" edge="1" parent="1" source="w8QxKclsJvKgP-PQZt70-4">
          <mxGeometry relative="1" as="geometry">
            <mxPoint x="470" y="590" as="targetPoint" />
            <Array as="points">
              <mxPoint x="470" y="476" />
            </Array>
          </mxGeometry>
        </mxCell>
        <mxCell id="w8QxKclsJvKgP-PQZt70-4" value="&lt;b&gt;Server&lt;/b&gt;" style="shape=cylinder3;whiteSpace=wrap;html=1;boundedLbl=1;backgroundOutline=1;size=15;" parent="1" vertex="1">
          <mxGeometry x="460" y="400" width="60" height="80" as="geometry" />
        </mxCell>
        <mxCell id="VgNWcCYagj2g2IF3U50I-2" style="edgeStyle=orthogonalEdgeStyle;rounded=0;orthogonalLoop=1;jettySize=auto;html=1;exitX=1;exitY=0.5;exitDx=0;exitDy=0;entryX=0.855;entryY=0;entryDx=0;entryDy=4.35;entryPerimeter=0;" edge="1" parent="1" source="FvrqTq16s8rVqCLobcpf-5" target="w8QxKclsJvKgP-PQZt70-4">
          <mxGeometry relative="1" as="geometry" />
        </mxCell>
        <mxCell id="VgNWcCYagj2g2IF3U50I-3" value="Sends package&lt;br&gt;to the server" style="edgeLabel;html=1;align=center;verticalAlign=middle;resizable=0;points=[];" vertex="1" connectable="0" parent="VgNWcCYagj2g2IF3U50I-2">
          <mxGeometry x="-0.5028" y="-2" relative="1" as="geometry">
            <mxPoint as="offset" />
          </mxGeometry>
        </mxCell>
        <mxCell id="VgNWcCYagj2g2IF3U50I-7" value="" style="edgeStyle=orthogonalEdgeStyle;rounded=0;orthogonalLoop=1;jettySize=auto;html=1;exitX=0;exitY=0.5;exitDx=0;exitDy=0;entryX=1;entryY=0.75;entryDx=0;entryDy=0;" edge="1" parent="1" source="VgNWcCYagj2g2IF3U50I-11" target="VgNWcCYagj2g2IF3U50I-13">
          <mxGeometry relative="1" as="geometry" />
        </mxCell>
        <mxCell id="VgNWcCYagj2g2IF3U50I-8" value="Displays selected&lt;br&gt;user information&lt;br&gt;to user" style="edgeLabel;html=1;align=center;verticalAlign=middle;resizable=0;points=[];" vertex="1" connectable="0" parent="VgNWcCYagj2g2IF3U50I-7">
          <mxGeometry x="0.1983" y="1" relative="1" as="geometry">
            <mxPoint x="2" y="14" as="offset" />
          </mxGeometry>
        </mxCell>
        <mxCell id="VgNWcCYagj2g2IF3U50I-9" value="Seek and Hide Mobile Application 2" style="swimlane;whiteSpace=wrap;html=1;startSize=40;fillColor=#FFFFFF;" vertex="1" parent="1">
          <mxGeometry x="260" y="520" width="120" height="180" as="geometry" />
        </mxCell>
        <mxCell id="VgNWcCYagj2g2IF3U50I-10" value="Packages data together and tracks location" style="rounded=0;whiteSpace=wrap;html=1;" vertex="1" parent="VgNWcCYagj2g2IF3U50I-9">
          <mxGeometry x="10" y="50" width="100" height="50" as="geometry" />
        </mxCell>
        <mxCell id="VgNWcCYagj2g2IF3U50I-11" value="&lt;font style=&quot;font-size: 11px;&quot;&gt;Selects a user from the list to display to the user&lt;/font&gt;" style="rounded=0;whiteSpace=wrap;html=1;" vertex="1" parent="VgNWcCYagj2g2IF3U50I-9">
          <mxGeometry x="10" y="120" width="100" height="50" as="geometry" />
        </mxCell>
        <mxCell id="VgNWcCYagj2g2IF3U50I-12" value="Inputs their&lt;br&gt;identification data" style="edgeStyle=orthogonalEdgeStyle;rounded=0;orthogonalLoop=1;jettySize=auto;html=1;exitX=1;exitY=0.25;exitDx=0;exitDy=0;entryX=0;entryY=0.5;entryDx=0;entryDy=0;" edge="1" parent="1" source="VgNWcCYagj2g2IF3U50I-13" target="VgNWcCYagj2g2IF3U50I-10">
          <mxGeometry x="-0.0588" relative="1" as="geometry">
            <mxPoint x="240" y="565" as="targetPoint" />
            <mxPoint as="offset" />
          </mxGeometry>
        </mxCell>
        <mxCell id="VgNWcCYagj2g2IF3U50I-13" value="&lt;b&gt;User 2&lt;/b&gt;" style="rounded=0;whiteSpace=wrap;html=1;" vertex="1" parent="1">
          <mxGeometry x="40" y="600" width="80" height="60" as="geometry" />
        </mxCell>
        <mxCell id="VgNWcCYagj2g2IF3U50I-16" style="edgeStyle=orthogonalEdgeStyle;rounded=0;orthogonalLoop=1;jettySize=auto;html=1;exitX=1;exitY=0.5;exitDx=0;exitDy=0;entryX=0.855;entryY=1;entryDx=0;entryDy=-4.35;entryPerimeter=0;" edge="1" parent="1" source="VgNWcCYagj2g2IF3U50I-10" target="w8QxKclsJvKgP-PQZt70-4">
          <mxGeometry relative="1" as="geometry">
            <mxPoint x="511" y="724" as="targetPoint" />
          </mxGeometry>
        </mxCell>
        <mxCell id="VgNWcCYagj2g2IF3U50I-17" value="Sends package&lt;br&gt;to the server" style="edgeLabel;html=1;align=center;verticalAlign=middle;resizable=0;points=[];" vertex="1" connectable="0" parent="VgNWcCYagj2g2IF3U50I-16">
          <mxGeometry x="-0.5028" y="-2" relative="1" as="geometry">
            <mxPoint x="-10" y="-2" as="offset" />
          </mxGeometry>
        </mxCell>
        <mxCell id="VgNWcCYagj2g2IF3U50I-21" value="" style="curved=1;endArrow=none;html=1;rounded=0;endFill=0;" edge="1" parent="1">
          <mxGeometry width="50" height="50" relative="1" as="geometry">
            <mxPoint x="470" y="600" as="sourcePoint" />
            <mxPoint x="470" y="590" as="targetPoint" />
            <Array as="points">
              <mxPoint x="480" y="600" />
              <mxPoint x="480" y="590" />
            </Array>
          </mxGeometry>
        </mxCell>
        <mxCell id="VgNWcCYagj2g2IF3U50I-25" value="Key" style="swimlane;whiteSpace=wrap;html=1;startSize=20;" vertex="1" parent="1">
          <mxGeometry x="600" y="200" width="160" height="160" as="geometry" />
        </mxCell>
        <mxCell id="VgNWcCYagj2g2IF3U50I-28" value="&lt;b&gt;Arrows&lt;/b&gt;: Communication or inputs between devices/users&lt;br&gt;&lt;b&gt;Cylinder&lt;/b&gt;: Server&lt;br&gt;&lt;b&gt;Boxes&lt;/b&gt;: User&lt;br&gt;&lt;b&gt;Container with Boxes:&lt;/b&gt; Application with processes done in the application" style="whiteSpace=wrap;html=1;align=left;" vertex="1" parent="VgNWcCYagj2g2IF3U50I-25">
          <mxGeometry y="20" width="160" height="140" as="geometry" />
        </mxCell>
      </root>
    </mxGraphModel>
  </diagram>
</mxfile>
